  0
SECTION
  2
HEADER
  9
$ACADVER
  1
AC1015
  9
$ACADMAINTVER
 70
     6
  9
$DWGCODEPAGE
  3
ANSI_1252
  9
$INSBASE
 10
0.0
 20
0.0
 30
0.0
  9
$EXTMIN
 10
-177.512687244
 20
-227.4909230378
 30
0.0
  9
$EXTMAX
 10
177.4965371736
 20
220.1491805549
 30
0.0
  9
$LIMMIN
 10
0.0
 20
0.0
  9
$LIMMAX
 10
420.0
 20
297.0
  9
$ORTHOMODE
 70
     0
  9
$REGENMODE
 70
     1
  9
$FILLMODE
 70
     1
  9
$QTEXTMODE
 70
     0
  9
$MIRRTEXT
 70
     1
  9
$LTSCALE
 40
1.0
  9
$ATTMODE
 70
     1
  9
$TEXTSIZE
 40
3.5
  9
$TRACEWID
 40
1.0
  9
$TEXTSTYLE
  7
Standard
  9
$CLAYER
  8
0
  9
$CELTYPE
  6
ByLayer
  9
$CECOLOR
 62
   256
  9
$CELTSCALE
 40
1.0
  9
$DISPSILH
 70
     0
  9
$DIMSCALE
 40
1.0
  9
$DIMASZ
 40
3.302
  9
$DIMEXO
 40
1.0
  9
$DIMDLI
 40
3.75
  9
$DIMRND
 40
0.0
  9
$DIMDLE
 40
0.0
  9
$DIMEXE
 40
1.0
  9
$DIMTP
 40
0.0
  9
$DIMTM
 40
0.0
  9
$DIMTXT
 40
3.5
  9
$DIMCEN
 40
2.5
  9
$DIMTSZ
 40
0.0
  9
$DIMTOL
 70
     0
  9
$DIMLIM
 70
     0
  9
$DIMTIH
 70
     1
  9
$DIMTOH
 70
     1
  9
$DIMSE1
 70
     0
  9
$DIMSE2
 70
     0
  9
$DIMTAD
 70
     1
  9
$DIMZIN
 70
     0
  9
$DIMBLK
  1

  9
$DIMASO
 70
     1
  9
$DIMSHO
 70
     1
  9
$DIMPOST
  1

  9
$DIMAPOST
  1

  9
$DIMALT
 70
     0
  9
$DIMALTD
 70
     3
  9
$DIMALTF
 40
0.0393700787
  9
$DIMLFAC
 40
1.0
  9
$DIMTOFL
 70
     1
  9
$DIMTVP
 40
0.0
  9
$DIMTIX
 70
     0
  9
$DIMSOXD
 70
     0
  9
$DIMSAH
 70
     0
  9
$DIMBLK1
  1

  9
$DIMBLK2
  1

  9
$DIMSTYLE
  2
ISO-25
  9
$DIMCLRD
 70
     0
  9
$DIMCLRE
 70
     0
  9
$DIMCLRT
 70
     0
  9
$DIMTFAC
 40
1.0
  9
$DIMGAP
 40
1.524
  9
$DIMJUST
 70
     0
  9
$DIMSD1
 70
     0
  9
$DIMSD2
 70
     0
  9
$DIMTOLJ
 70
     0
  9
$DIMTZIN
 70
     0
  9
$DIMALTZ
 70
     0
  9
$DIMALTTZ
 70
     0
  9
$DIMUPT
 70
     0
  9
$DIMDEC
 70
     2
  9
$DIMTDEC
 70
     2
  9
$DIMALTU
 70
     2
  9
$DIMALTTD
 70
     3
  9
$DIMTXSTY
  7
Standard
  9
$DIMAUNIT
 70
     0
  9
$DIMADEC
 70
     2
  9
$DIMALTRND
 40
0.0
  9
$DIMAZIN
 70
     0
  9
$DIMDSEP
 70
    44
  9
$DIMATFIT
 70
     3
  9
$DIMFRAC
 70
     0
  9
$DIMLDRBLK
  1

  9
$DIMLUNIT
 70
     2
  9
$DIMLWD
 70
    -2
  9
$DIMLWE
 70
    -2
  9
$DIMTMOVE
 70
     0
  9
$LUNITS
 70
     2
  9
$LUPREC
 70
     2
  9
$SKETCHINC
 40
1.0
  9
$FILLETRAD
 40
10.0
  9
$AUNITS
 70
     0
  9
$AUPREC
 70
     2
  9
$MENU
  1
.
  9
$ELEVATION
 40
0.0
  9
$PELEVATION
 40
0.0
  9
$THICKNESS
 40
0.0
  9
$LIMCHECK
 70
     0
  9
$CHAMFERA
 40
0.0
  9
$CHAMFERB
 40
0.0
  9
$CHAMFERC
 40
0.0
  9
$CHAMFERD
 40
0.0
  9
$SKPOLY
 70
     0
  9
$TDCREATE
 40
2458197.629999977
  9
$TDUCREATE
 40
2458197.58833331
  9
$TDUPDATE
 40
2458197.630023981
  9
$TDUUPDATE
 40
2458197.588357315
  9
$TDINDWG
 40
0.0000000116
  9
$TDUSRTIMER
 40
0.0000000116
  9
$USRTIMER
 70
     1
  9
$ANGBASE
 50
0.0
  9
$ANGDIR
 70
     0
  9
$PDMODE
 70
     0
  9
$PDSIZE
 40
-1.0
  9
$PLINEWID
 40
0.0
  9
$SPLFRAME
 70
     0
  9
$SPLINETYPE
 70
     6
  9
$SPLINESEGS
 70
     8
  9
$HANDSEED
  5
77
  9
$SURFTAB1
 70
     6
  9
$SURFTAB2
 70
     6
  9
$SURFTYPE
 70
     6
  9
$SURFU
 70
     6
  9
$SURFV
 70
     6
  9
$UCSBASE
  2

  9
$UCSNAME
  2

  9
$UCSORG
 10
0.0
 20
0.0
 30
0.0
  9
$UCSXDIR
 10
1.0
 20
0.0
 30
0.0
  9
$UCSYDIR
 10
0.0
 20
1.0
 30
0.0
  9
$UCSORTHOREF
  2

  9
$UCSORTHOVIEW
 70
     0
  9
$UCSORGTOP
 10
0.0
 20
0.0
 30
0.0
  9
$UCSORGBOTTOM
 10
0.0
 20
0.0
 30
0.0
  9
$UCSORGLEFT
 10
0.0
 20
0.0
 30
0.0
  9
$UCSORGRIGHT
 10
0.0
 20
0.0
 30
0.0
  9
$UCSORGFRONT
 10
0.0
 20
0.0
 30
0.0
  9
$UCSORGBACK
 10
0.0
 20
0.0
 30
0.0
  9
$PUCSBASE
  2

  9
$PUCSNAME
  2

  9
$PUCSORG
 10
0.0
 20
0.0
 30
0.0
  9
$PUCSXDIR
 10
1.0
 20
0.0
 30
0.0
  9
$PUCSYDIR
 10
0.0
 20
1.0
 30
0.0
  9
$PUCSORTHOREF
  2

  9
$PUCSORTHOVIEW
 70
     0
  9
$PUCSORGTOP
 10
0.0
 20
0.0
 30
0.0
  9
$PUCSORGBOTTOM
 10
0.0
 20
0.0
 30
0.0
  9
$PUCSORGLEFT
 10
0.0
 20
0.0
 30
0.0
  9
$PUCSORGRIGHT
 10
0.0
 20
0.0
 30
0.0
  9
$PUCSORGFRONT
 10
0.0
 20
0.0
 30
0.0
  9
$PUCSORGBACK
 10
0.0
 20
0.0
 30
0.0
  9
$USERI1
 70
     0
  9
$USERI2
 70
     0
  9
$USERI3
 70
     0
  9
$USERI4
 70
     0
  9
$USERI5
 70
     0
  9
$USERR1
 40
0.0
  9
$USERR2
 40
0.0
  9
$USERR3
 40
0.0
  9
$USERR4
 40
0.0
  9
$USERR5
 40
0.0
  9
$WORLDVIEW
 70
     1
  9
$SHADEDGE
 70
     3
  9
$SHADEDIF
 70
    70
  9
$TILEMODE
 70
     1
  9
$MAXACTVP
 70
    64
  9
$PINSBASE
 10
0.0
 20
0.0
 30
0.0
  9
$PLIMCHECK
 70
     0
  9
$PEXTMIN
 10
1.0000000000E+20
 20
1.0000000000E+20
 30
1.0000000000E+20
  9
$PEXTMAX
 10
-1.0000000000E+20
 20
-1.0000000000E+20
 30
-1.0000000000E+20
  9
$PLIMMIN
 10
0.0
 20
0.0
  9
$PLIMMAX
 10
420.0
 20
297.0
  9
$UNITMODE
 70
     0
  9
$VISRETAIN
 70
     1
  9
$PLINEGEN
 70
     0
  9
$PSLTSCALE
 70
     1
  9
$TREEDEPTH
 70
  3020
  9
$CMLSTYLE
  2
Standard
  9
$CMLJUST
 70
     0
  9
$CMLSCALE
 40
20.0
  9
$PROXYGRAPHICS
 70
     1
  9
$MEASUREMENT
 70
     1
  9
$CELWEIGHT
370
    -1
  9
$ENDCAPS
280
     0
  9
$JOINSTYLE
280
     0
  9
$LWDISPLAY
290
     1
  9
$INSUNITS
 70
     4
  9
$HYPERLINKBASE
  1

  9
$STYLESHEET
  1

  9
$XEDIT
290
     1
  9
$CEPSNTYPE
380
     0
  9
$PSTYLEMODE
290
     1
  9
$FINGERPRINTGUID
  2
{2FC73E13-6FA2-4406-BA4C-3404B76CBBD3}
  9
$VERSIONGUID
  2
{FAEB1C32-E019-11D5-929B-00C0DF256EC4}
  9
$EXTNAMES
290
     1
  9
$PSVPSCALE
 40
0.0
  9
$OLESTARTUP
290
     0
  0
ENDSEC
  0
SECTION
  2
CLASSES
  0
CLASS
  1
ACDBDICTIONARYWDFLT
  2
AcDbDictionaryWithDefault
  3
ObjectDBX Classes
 90
        0
280
     0
281
     0
  0
CLASS
  1
VISUALSTYLE
  2
AcDbVisualStyle
  3
ObjectDBX Classes
 90
     4095
280
     0
281
     0
  0
CLASS
  1
MATERIAL
  2
AcDbMaterial
  3
ObjectDBX Classes
 90
     1153
280
     0
281
     0
  0
CLASS
  1
SCALE
  2
AcDbScale
  3
ObjectDBX Classes
 90
     1153
280
     0
281
     0
  0
CLASS
  1
TABLESTYLE
  2
AcDbTableStyle
  3
ObjectDBX Classes
 90
     4095
280
     0
281
     0
  0
CLASS
  1
MLEADERSTYLE
  2
AcDbMLeaderStyle
  3
ACDB_MLEADERSTYLE_CLASS
 90
     4095
280
     0
281
     0
  0
CLASS
  1
SUN
  2
AcDbSun
  3
SCENEOE
 90
     1153
280
     0
281
     0
  0
CLASS
  1
ACDBPLACEHOLDER
  2
AcDbPlaceHolder
  3
ObjectDBX Classes
 90
        0
280
     0
281
     0
  0
CLASS
  1
LAYOUT
  2
AcDbLayout
  3
ObjectDBX Classes
 90
        0
280
     0
281
     0
  0
ENDSEC
  0
SECTION
  2
TABLES
  0
TABLE
  2
VPORT
  5
8
330
0
100
AcDbSymbolTable
 70
     1
  0
VPORT
  5
29
330
8
100
AcDbSymbolTableRecord
100
AcDbViewportTableRecord
  2
*Active
 70
     0
 10
0.0
 20
0.0
 11
1.0
 21
1.0
 12
-0.0080750352
 22
-3.6708712415
 13
0.0
 23
0.0
 14
10.0
 24
10.0
 15
10.0
 25
10.0
 16
0.0
 26
0.0
 36
1.0
 17
0.0
 27
0.0
 37
0.0
 40
456.5929056646
 41
0.7930684082
 42
50.0
 43
0.0
 44
0.0
 50
0.0
 51
0.0
 71
     0
 72
   100
 73
     1
 74
     3
 75
     0
 76
     0
 77
     0
 78
     0
281
     0
 65
     1
110
0.0
120
0.0
130
0.0
111
1.0
121
0.0
131
0.0
112
0.0
122
1.0
132
0.0
 79
     0
146
0.0
  0
ENDTAB
  0
TABLE
  2
LTYPE
  5
5
330
0
100
AcDbSymbolTable
 70
     6
  0
LTYPE
  5
14
330
5
100
AcDbSymbolTableRecord
100
AcDbLinetypeTableRecord
  2
ByBlock
 70
     0
  3

 72
    65
 73
     0
 40
0.0
  0
LTYPE
  5
15
330
5
100
AcDbSymbolTableRecord
100
AcDbLinetypeTableRecord
  2
ByLayer
 70
     0
  3

 72
    65
 73
     0
 40
0.0
  0
LTYPE
  5
16
330
5
100
AcDbSymbolTableRecord
100
AcDbLinetypeTableRecord
  2
Continuous
 70
     0
  3
Solid line
 72
    65
 73
     0
 40
0.0
  0
LTYPE
  5
6E
330
5
100
AcDbSymbolTableRecord
100
AcDbLinetypeTableRecord
  2
HIDDEN
 70
     0
  3
Hidden __ __ __ __ __ __ __ __ __ __ __ __ __ __
 72
    65
 73
     2
 40
1.905
 49
1.27
 74
     0
 49
-0.635
 74
     0
  0
LTYPE
  5
6F
330
5
100
AcDbSymbolTableRecord
100
AcDbLinetypeTableRecord
  2
PHANTOM
 70
     0
  3
Phantom ______  __  __  ______  __  __  ______
 72
    65
 73
     6
 40
12.7
 49
6.35
 74
     0
 49
-1.27
 74
     0
 49
1.27
 74
     0
 49
-1.27
 74
     0
 49
1.27
 74
     0
 49
-1.27
 74
     0
  0
LTYPE
  5
70
330
5
100
AcDbSymbolTableRecord
100
AcDbLinetypeTableRecord
  2
CENTER
 70
     0
  3
Center ____ _ ____ _ ____ _ ____ _ ____ _ ____
 72
    65
 73
     4
 40
10.16
 49
6.35
 74
     0
 49
-1.27
 74
     0
 49
1.27
 74
     0
 49
-1.27
 74
     0
  0
LTYPE
  5
71
330
5
100
AcDbSymbolTableRecord
100
AcDbLinetypeTableRecord
  2
CENTERX2
 70
     0
  3
Center (2x) ________  __  ________  __  _____
 72
    65
 73
     4
 40
20.32
 49
12.7
 74
     0
 49
-2.54
 74
     0
 49
2.54
 74
     0
 49
-2.54
 74
     0
  0
LTYPE
  5
72
330
5
100
AcDbSymbolTableRecord
100
AcDbLinetypeTableRecord
  2
DOT2
 70
     0
  3
Dot (.5x) ........................................
 72
    65
 73
     2
 40
0.635
 49
0.0
 74
     0
 49
-0.635
 74
     0
  0
ENDTAB
  0
TABLE
  2
LAYER
  5
2
330
0
100
AcDbSymbolTable
 70
     1
  0
LAYER
  5
10
330
2
100
AcDbSymbolTableRecord
100
AcDbLayerTableRecord
  2
0
 70
     0
 62
     7
  6
Continuous
370
    -3
390
F
  0
ENDTAB
  0
TABLE
  2
STYLE
  5
3
330
0
100
AcDbSymbolTable
 70
     2
  0
STYLE
  5
11
330
3
100
AcDbSymbolTableRecord
100
AcDbTextStyleTableRecord
  2
Standard
 70
     0
 40
0.0
 41
1.0
 50
0.0
 71
     0
 42
3.5
  3
txt
  4

  0
STYLE
  5
74
330
3
100
AcDbSymbolTableRecord
100
AcDbTextStyleTableRecord
  2
SLDTEXTSTYLE0
 70
     0
 40
0.0
 41
0.7
 50
0.0
 71
     0
 42
3.5
  3
TXT
  4

  0
ENDTAB
  0
TABLE
  2
VIEW
  5
6
330
0
100
AcDbSymbolTable
 70
     0
  0
ENDTAB
  0
TABLE
  2
UCS
  5
7
330
0
100
AcDbSymbolTable
 70
     0
  0
ENDTAB
  0
TABLE
  2
APPID
  5
9
330
0
100
AcDbSymbolTable
 70
     1
  0
APPID
  5
12
330
9
100
AcDbSymbolTableRecord
100
AcDbRegAppTableRecord
  2
ACAD
 70
     0
  0
ENDTAB
  0
TABLE
  2
DIMSTYLE
  5
A
330
0
100
AcDbSymbolTable
 70
     1
100
AcDbDimStyleTable
  0
DIMSTYLE
105
27
330
A
100
AcDbSymbolTableRecord
100
AcDbDimStyleTableRecord
  2
ISO-25
 70
     0
 41
2.5
 42
0.625
 43
3.75
 44
1.25
 73
     0
 74
     0
 77
     1
 78
     8
140
2.5
141
2.5
143
0.0393700787
147
0.625
171
     3
172
     1
178
     0
271
     2
272
     2
274
     3
278
    44
283
     0
284
     8
340
11
  0
ENDTAB
  0
TABLE
  2
BLOCK_RECORD
  5
1
330
0
100
AcDbSymbolTable
 70
     1
  0
BLOCK_RECORD
  5
1F
330
1
100
AcDbSymbolTableRecord
100
AcDbBlockTableRecord
  2
*Model_Space
340
22
  0
BLOCK_RECORD
  5
1B
330
1
100
AcDbSymbolTableRecord
100
AcDbBlockTableRecord
  2
*Paper_Space
340
1E
  0
BLOCK_RECORD
  5
23
330
1
100
AcDbSymbolTableRecord
100
AcDbBlockTableRecord
  2
*Paper_Space0
340
26
  0
ENDTAB
  0
ENDSEC
  0
SECTION
  2
BLOCKS
  0
BLOCK
  5
20
330
1F
100
AcDbEntity
  8
0
100
AcDbBlockBegin
  2
*Model_Space
 70
     0
 10
0.0
 20
0.0
 30
0.0
  3
*Model_Space
  1

  0
ENDBLK
  5
21
330
1F
100
AcDbEntity
  8
0
100
AcDbBlockEnd
  0
BLOCK
  5
1C
330
1B
100
AcDbEntity
 67
     1
  8
0
100
AcDbBlockBegin
  2
*Paper_Space
 70
     0
 10
0.0
 20
0.0
 30
0.0
  3
*Paper_Space
  1

  0
ENDBLK
  5
1D
330
1B
100
AcDbEntity
 67
     1
  8
0
100
AcDbBlockEnd
  0
BLOCK
  5
24
330
23
100
AcDbEntity
  8
0
100
AcDbBlockBegin
  2
*Paper_Space0
 70
     0
 10
0.0
 20
0.0
 30
0.0
  3
*Paper_Space0
  1

  0
ENDBLK
  5
25
330
23
100
AcDbEntity
  8
0
100
AcDbBlockEnd
  0
ENDSEC
  0
SECTION
  2
ENTITIES
  0
SPLINE
  5
73
330
1F
100
AcDbEntity
  8
0
  6
Continuous
 62
     7
370
    15
100
AcDbSpline
210
0.0
220
0.0
230
1.0
 70
    11
 71
     3
 72
   213
 73
   209
 74
     0
 42
0.000000001
 43
0.00000001
 40
0.0
 40
0.0
 40
0.0
 40
0.0
 40
0.0009765624999999
 40
0.0009765624999999
 40
0.0019531249999998
 40
0.0039062499999998
 40
0.0039062499999998
 40
0.0078124999999997
 40
0.0078124999999997
 40
0.0156249999999996
 40
0.0156249999999996
 40
0.0234374999999993
 40
0.0234374999999993
 40
0.0312499999999991
 40
0.0312499999999991
 40
0.0468749999999988
 40
0.0468749999999988
 40
0.0624999999999984
 40
0.0624999999999984
 40
0.0703124999999982
 40
0.0703124999999982
 40
0.0742187499999982
 40
0.0742187499999982
 40
0.0781249999999981
 40
0.0781249999999981
 40
0.0937499999999979
 40
0.0937499999999979
 40
0.1093749999999977
 40
0.1093749999999977
 40
0.1171874999999974
 40
0.1171874999999974
 40
0.1210937499999974
 40
0.1210937499999974
 40
0.1249999999999973
 40
0.1249999999999973
 40
0.1406249999999971
 40
0.1406249999999971
 40
0.148437499999997
 40
0.148437499999997
 40
0.152343749999997
 40
0.152343749999997
 40
0.156249999999997
 40
0.156249999999997
 40
0.1718749999999968
 40
0.1718749999999968
 40
0.1874999999999967
 40
0.1874999999999967
 40
0.1914062499999967
 40
0.1914062499999967
 40
0.1953124999999966
 40
0.1953124999999966
 40
0.2031249999999966
 40
0.2031249999999966
 40
0.2187499999999963
 40
0.2187499999999963
 40
0.2343749999999961
 40
0.2343749999999961
 40
0.2382812499999961
 40
0.2382812499999961
 40
0.242187499999996
 40
0.242187499999996
 40
0.249999999999996
 40
0.249999999999996
 40
0.2656249999999959
 40
0.2656249999999959
 40
0.2734374999999958
 40
0.2734374999999958
 40
0.2773437499999958
 40
0.2773437499999958
 40
0.2812499999999958
 40
0.2812499999999958
 40
0.2968749999999956
 40
0.2968749999999956
 40
0.3124999999999954
 40
0.3124999999999954
 40
0.3281249999999953
 40
0.3281249999999953
 40
0.3359374999999952
 40
0.3359374999999952
 40
0.3437499999999951
 40
0.3437499999999951
 40
0.3593749999999951
 40
0.3593749999999951
 40
0.3749999999999951
 40
0.3749999999999951
 40
0.390624999999995
 40
0.390624999999995
 40
0.406249999999995
 40
0.406249999999995
 40
0.410156249999995
 40
0.410156249999995
 40
0.4140624999999949
 40
0.4140624999999949
 40
0.421874999999995
 40
0.421874999999995
 40
0.4374999999999949
 40
0.4374999999999949
 40
0.4531249999999949
 40
0.4531249999999949
 40
0.4687499999999949
 40
0.4687499999999949
 40
0.4765624999999949
 40
0.4765624999999949
 40
0.4804687499999949
 40
0.4804687499999949
 40
0.4843749999999948
 40
0.4843749999999948
 40
0.4999999999999949
 40
0.4999999999999949
 40
0.5156249999999949
 40
0.5156249999999949
 40
0.5312499999999949
 40
0.5312499999999949
 40
0.5351562499999949
 40
0.5351562499999949
 40
0.5390624999999949
 40
0.5390624999999949
 40
0.5468749999999949
 40
0.5468749999999949
 40
0.5624999999999949
 40
0.5624999999999949
 40
0.578124999999995
 40
0.578124999999995
 40
0.582031249999995
 40
0.582031249999995
 40
0.585937499999995
 40
0.585937499999995
 40
0.5937499999999951
 40
0.5937499999999951
 40
0.6093749999999952
 40
0.6093749999999952
 40
0.6249999999999954
 40
0.6249999999999954
 40
0.6289062499999956
 40
0.6289062499999956
 40
0.6328124999999956
 40
0.6328124999999956
 40
0.6406249999999958
 40
0.6406249999999958
 40
0.656249999999996
 40
0.656249999999996
 40
0.664062499999996
 40
0.664062499999996
 40
0.667968749999996
 40
0.667968749999996
 40
0.671874999999996
 40
0.671874999999996
 40
0.6874999999999962
 40
0.6874999999999962
 40
0.7031249999999964
 40
0.7031249999999964
 40
0.7050781249999964
 40
0.7050781249999964
 40
0.7070312499999964
 40
0.7070312499999964
 40
0.7109374999999966
 40
0.7109374999999966
 40
0.7187499999999966
 40
0.7187499999999966
 40
0.7343749999999967
 40
0.7343749999999967
 40
0.7421874999999967
 40
0.7421874999999967
 40
0.7460937499999968
 40
0.7460937499999968
 40
0.7499999999999969
 40
0.7499999999999969
 40
0.7656249999999969
 40
0.7656249999999969
 40
0.7812499999999969
 40
0.7812499999999969
 40
0.7890624999999969
 40
0.7890624999999969
 40
0.7929687499999969
 40
0.7929687499999969
 40
0.7968749999999969
 40
0.7968749999999969
 40
0.812499999999997
 40
0.812499999999997
 40
0.8281249999999971
 40
0.8281249999999971
 40
0.8437499999999972
 40
0.8437499999999972
 40
0.8476562499999972
 40
0.8476562499999972
 40
0.8515624999999973
 40
0.8515624999999973
 40
0.8593749999999973
 40
0.8593749999999973
 40
0.8749999999999977
 40
0.8749999999999977
 40
0.890624999999998
 40
0.890624999999998
 40
0.9062499999999982
 40
0.9062499999999982
 40
0.9218749999999986
 40
0.9218749999999986
 40
0.9296874999999987
 40
0.9296874999999987
 40
0.9374999999999988
 40
0.9374999999999988
 40
0.9531249999999991
 40
0.9531249999999991
 40
0.9687499999999994
 40
0.9687499999999994
 40
0.9843749999999997
 40
0.9843749999999997
 40
1.0
 40
1.0
 40
1.0
 40
1.0
 10
-169.4838081914588
 20
-70.84946647381598
 30
0.0
 10
-169.383718231771
 20
-71.251477757604
 30
0.0
 10
-169.28182354447
 20
-71.6567381822275
 30
0.0
 10
-169.0770645367794
 20
-72.46314559239198
 30
0.0
 10
-168.7671506392169
 20
-73.67189208997213
 30
0.0
 10
-168.4489006264678
 20
-74.87804163260756
 30
0.0
 10
-167.8012559197566
 20
-77.28686880868204
 30
0.0
 10
-167.3546345980131
 20
-78.88812481381325
 30
0.0
 10
-165.9699014274954
 20
-83.6779146988778
 30
0.0
 10
-164.9869461126289
 20
-86.85247846702845
 30
0.0
 10
-162.8992671065045
 20
-93.16367142828366
 30
0.0
 10
-161.7945462843375
 20
-96.300301515198
 30
0.0
 10
-159.460314240068
 20
-102.5346856611807
 30
0.0
 10
-158.2339735216667
 20
-105.6237692515308
 30
0.0
 10
-154.3811683690759
 20
-114.7915788475372
 30
0.0
 10
-151.5790624484096
 20
-120.7772147869644
 30
0.0
 10
-145.4904099681783
 20
-132.4866610236562
 30
0.0
 10
-142.2039797489618
 20
-138.2105341993919
 30
0.0
 10
-136.8869646470598
 20
-146.5869822136987
 30
0.0
 10
-135.0499381886322
 20
-149.3441695778469
 30
0.0
 10
-132.1930091465394
 20
-153.425152717564
 30
0.0
 10
-131.2237909469736
 20
-154.7763418832593
 30
0.0
 10
-129.2506762025657
 20
-157.4599776086586
 30
0.0
 10
-128.247961061727
 20
-158.7907503635215
 30
0.0
 10
-123.1674842113064
 20
-165.3691576716305
 30
0.0
 10
-118.87594589952
 20
-170.4097170185075
 30
0.0
 10
-109.8158325241444
 20
-180.0242788200192
 30
0.0
 10
-105.0474318970567
 20
-184.5984518790178
 30
0.0
 10
-97.50683943011593
 20
-191.0802435962303
 30
0.0
 10
-94.92848951801678
 20
-193.1774457342439
 30
0.0
 10
-90.95824987659034
 20
-196.222790674209
 30
0.0
 10
-89.62114224722764
 20
-197.2184633302844
 30
0.0
 10
-86.92540109218537
 20
-199.1660495822117
 30
0.0
 10
-85.56582318105565
 20
-200.1186902519616
 30
0.0
 10
-78.70891948931639
 20
-204.7752686448146
 30
0.0
 10
-73.03512586221638
 20
-208.1603696010787
 30
0.0
 10
-64.22626593072853
 20
-212.699297419136
 30
0.0
 10
-61.24017230058379
 20
-214.1222836022877
 30
0.0
 10
-56.68318503794144
 20
-216.1161116021794
 30
0.0
 10
-55.1512058539707
 20
-216.7572628673443
 30
0.0
 10
-52.06064036216746
 20
-217.9914924511538
 30
0.0
 10
-50.50008768970534
 20
-218.5852751657449
 30
0.0
 10
-42.6514976746963
 20
-221.4226470836711
 30
0.0
 10
-36.2900143258018
 20
-223.2510595389427
 30
0.0
 10
-23.40139023276761
 20
-226.0225910866778
 30
0.0
 10
-16.87427130545017
 20
-226.965826770908
 30
0.0
 10
-8.60767027550875
 20
-227.569296745907
 30
0.0
 10
-6.948948409975963
 20
-227.6611236122417
 30
0.0
 10
-3.62052698410041
 20
-227.7861112024198
 30
0.0
 10
-1.947187027235648
 20
-227.819233333707
 30
0.0
 10
3.056088831150368
 20
-227.8291623651506
 30
0.0
 10
6.370261636097146
 20
-227.7173190826268
 30
0.0
 10
16.25086017635887
 20
-227.0381309482276
 30
0.0
 10
22.75555694819294
 20
-226.1281873753086
 30
0.0
 10
35.60635042131783
 20
-223.4280621975681
 30
0.0
 10
41.95242796680731
 20
-221.6377742771292
 30
0.0
 10
49.78599365137269
 20
-218.8502861833633
 30
0.0
 10
51.35071780263025
 20
-218.264032010512
 30
0.0
 10
54.4542155459182
 20
-217.0424952502713
 30
0.0
 10
55.99175484118729
 20
-216.4078406575953
 30
0.0
 10
60.56291612022534
 20
-214.4341885725407
 30
0.0
 10
63.55512270784783
 20
-213.0255720479451
 30
0.0
 10
72.37377794030012
 20
-208.5341850471304
 30
0.0
 10
78.04275819136231
 20
-205.1867111466073
 30
0.0
 10
86.25142389532766
 20
-199.6699354114796
 30
0.0
 10
88.93837918659031
 20
-197.7481932907805
 30
0.0
 10
92.89639066183689
 20
-194.7438400676035
 30
0.0
 10
94.20365079078708
 20
-193.7220875792044
 30
0.0
 10
96.79418495125607
 20
-191.6382621166636
 30
0.0
 10
98.07934176469344
 20
-190.5745644554734
 30
0.0
 10
104.419677430953
 20
-185.1779322581816
 30
0.0
 10
109.2104127941429
 20
-180.621120764659
 30
0.0
 10
118.2852276150393
 20
-171.0764757582103
 30
0.0
 10
122.5690379321
 20
-166.0884132821087
 30
0.0
 10
130.6639211985914
 20
-155.710121469443
 30
0.0
 10
134.4748592090687
 20
-150.3197773376903
 30
0.0
 10
139.8503169451754
 20
-141.9442089657526
 30
0.0
 10
141.5880925689387
 20
-139.0983639086756
 30
0.0
 10
144.9192839353715
 20
-133.3672124246575
 30
0.0
 10
146.5165919402573
 20
-130.4763531560375
 30
0.0
 10
151.1131587142842
 20
-121.7314442926155
 30
0.0
 10
153.9175729475402
 20
-115.8052534692864
 30
0.0
 10
159.0426246858489
 20
-103.7737533918908
 30
0.0
 10
161.3631307757271
 20
-97.66839548132958
 30
0.0
 10
165.5412205796219
 20
-85.28628255761105
 30
0.0
 10
167.3987416823552
 20
-79.00950436261361
 30
0.0
 10
170.6596723523813
 20
-66.28781308545696
 30
0.0
 10
172.0630683231756
 20
-59.84289496919185
 30
0.0
 10
173.5321498697294
 20
-51.68116551149095
 30
0.0
 10
173.8115315825513
 20
-50.04415353513544
 30
0.0
 10
174.3396093178783
 20
-46.77294687801809
 30
0.0
 10
174.5886071910286
 20
-45.13711477379157
 30
0.0
 10
175.2910167431624
 20
-40.22894033110075
 30
0.0
 10
175.6998680781321
 20
-36.95592022346053
 30
0.0
 10
176.751573856293
 20
-27.13420043411897
 30
0.0
 10
177.2199189934979
 20
-20.58284644102992
 30
0.0
 10
177.7005725208179
 20
-7.473202071005614
 30
0.0
 10
177.7128647879141
 20
-0.9149114488372266
 30
0.0
 10
177.2802095593299
 20
12.20862447738565
 30
0.0
 10
176.8352876130008
 20
18.77386939283078
 30
0.0
 10
175.8159922983272
 20
28.62708940362843
 30
0.0
 10
175.4174884772194
 20
31.91238949813031
 30
0.0
 10
174.7296555699756
 20
36.8417097265472
 30
0.0
 10
174.4855289149439
 20
38.48363920510494
 30
0.0
 10
173.9688175412794
 20
41.75669521915518
 30
0.0
 10
173.6960637174471
 20
43.38905668211041
 30
0.0
 10
172.2603890483807
 20
51.53005591299519
 30
0.0
 10
170.8821855986291
 20
57.9763950335892
 30
0.0
 10
167.6617166389836
 20
70.73478263531125
 30
0.0
 10
165.8194940761456
 20
77.04684354449152
 30
0.0
 10
161.6546521660213
 20
89.5319477681775
 30
0.0
 10
159.3321350329588
 20
95.7050206615144
 30
0.0
 10
156.1099668343276
 20
103.3290430069937
 30
0.0
 10
155.4495435412259
 20
104.8492203777743
 30
0.0
 10
154.096080719307
 20
107.8801366077067
 30
0.0
 10
153.4029080939255
 20
109.3910631761766
 30
0.0
 10
151.2817788417804
 20
113.8921604821238
 30
0.0
 10
149.809711923461
 20
116.8564379181743
 30
0.0
 10
145.2171602264733
 20
125.6383935117082
 30
0.0
 10
141.92079178631
 20
131.3454887467688
 30
0.0
 10
134.8355265717514
 20
142.4500130312281
 30
0.0
 10
131.046789172571
 20
147.8475422842321
 30
0.0
 10
125.9781609622915
 20
154.3852720965533
 30
0.0
 10
124.9477511845231
 20
155.6823282814596
 30
0.0
 10
122.8527254433671
 20
158.2549342763274
 30
0.0
 10
121.7872054693493
 20
159.5315356332492
 30
0.0
 10
118.5441862502203
 20
163.3209162549416
 30
0.0
 10
116.327099870564
 20
165.7855266674157
 30
0.0
 10
109.5075305964776
 20
172.990969923446
 30
0.0
 10
104.7372780781672
 20
177.5440197748519
 30
0.0
 10
94.72082299915863
 20
186.1173929863818
 30
0.0
 10
89.47484913854024
 20
190.1379723283946
 30
0.0
 10
82.58999901635009
 20
194.7972599623467
 30
0.0
 10
81.19564715456535
 20
195.7112432095908
 30
0.0
 10
78.38969183758529
 20
197.4911070629891
 30
0.0
 10
76.97620698320087
 20
198.3583061663777
 30
0.0
 10
72.70404058179248
 20
200.8912933903562
 30
0.0
 10
69.81367158149831
 20
202.4885241828449
 30
0.0
 10
61.0134196782729
 20
207.0008053571774
 30
0.0
 10
54.97486385223639
 20
209.6374656856523
 30
0.0
 10
45.64231478847534
 20
212.9980963700958
 30
0.0
 10
42.48556857265459
 20
214.0190072542692
 30
0.0
 10
37.67828731074511
 20
215.3942477590597
 30
0.0
 10
36.07043068243231
 20
215.8246824921108
 30
0.0
 10
32.85123095470369
 20
216.6278706743628
 30
0.0
 10
31.23871327004189
 20
217.0009617705144
 30
0.0
 10
23.16159979265163
 20
218.7245279536746
 30
0.0
 10
16.65356215821777
 20
219.6506375015559
 30
0.0
 10
3.544291274791334
 20
220.5924668517715
 30
0.0
 10
-3.056927814529021
 20
220.6083249741381
 30
0.0
 10
-10.53800297406474
 20
220.0917875025101
 30
0.0
 10
-11.36986411168352
 20
220.0269357146941
 30
0.0
 10
-13.02767986016282
 20
219.8829588905688
 30
0.0
 10
-13.85456587871972
 20
219.8037743604514
 30
0.0
 10
-16.3292271232852
 20
219.5448771296842
 30
0.0
 10
-17.9710070307686
 20
219.3438261009578
 30
0.0
 10
-22.8728579336106
 20
218.6570724292843
 30
0.0
 10
-26.10946097439617
 20
218.0878434629455
 30
0.0
 10
-35.72851710115722
 20
216.0571516750621
 30
0.0
 10
-42.02049052998698
 20
214.2736568213038
 30
0.0
 10
-51.28438653374593
 20
210.9788915413266
 30
0.0
 10
-54.34326994625147
 20
209.7771290877413
 30
0.0
 10
-58.88824691961528
 20
207.8202022038843
 30
0.0
 10
-60.39601054311017
 20
207.1421651028844
 30
0.0
 10
-63.39707842069477
 20
205.7346276188504
 30
0.0
 10
-64.89226877759941
 20
205.0041620608372
 30
0.0
 10
-72.31063344616759
 20
201.233795278661
 30
0.0
 10
-77.99396548726564
 20
197.8770868611095
 30
0.0
 10
-88.9073697030244
 20
190.5498227881496
 30
0.0
 10
-94.13719426395143
 20
186.5789317908812
 30
0.0
 10
-101.6633070268038
 20
180.1910845325924
 30
0.0
 10
-104.1187706381961
 20
177.9896986158077
 30
0.0
 10
-107.7237130701648
 20
174.5816421716314
 30
0.0
 10
-108.9123113729636
 20
173.4279509346794
 30
0.0
 10
-111.2635966206832
 20
171.0854768573926
 30
0.0
 10
-112.4271911680239
 20
169.8956627705147
 30
0.0
 10
-118.1496054261171
 20
163.8927569410819
 30
0.0
 10
-122.4468196865643
 20
158.8957052101039
 30
0.0
 10
-130.5332758632928
 20
148.5492329444769
 30
0.0
 10
-134.3222767138449
 20
143.1996451880416
 30
0.0
 10
-141.4247154054682
 20
132.1705824861425
 30
0.0
 10
-144.7380308209163
 20
126.4910226168225
 30
0.0
 10
-148.5933205832899
 20
119.1929352043397
 30
0.0
 10
-149.3500280000716
 20
117.7233630832643
 30
0.0
 10
-150.8348901455059
 20
114.7644124940296
 30
0.0
 10
-151.5638280165037
 20
113.2733715343228
 30
0.0
 10
-153.7018232989343
 20
108.7836438531654
 30
0.0
 10
-155.0604445355264
 20
105.7722769323485
 30
0.0
 10
-158.9447545777966
 20
96.68587171128787
 30
0.0
 10
-161.2793631871452
 20
90.55865823554336
 30
0.0
 10
-165.4711660290939
 20
78.17387146983968
 30
0.0
 10
-167.3282484168738
 20
71.91626764022634
 30
0.0
 10
-170.5832437810983
 20
59.27568202409297
 30
0.0
 10
-171.981105643643
 20
52.89268628072791
 30
0.0
 10
-174.3244441658116
 20
40.0031692910419
 30
0.0
 10
-175.269914916275
 20
33.49664643120225
 30
0.0
 10
-176.3459316249125
 20
23.64342601759247
 30
0.0
 10
-176.6475766271775
 20
20.33936584907843
 30
0.0
 10
-177.1321512011351
 20
13.75154424692211
 30
0.0
 10
-177.3158600854017
 20
10.46200408050524
 30
0.0
 10
-177.6942575442579
 20
0.6062712013862629
 30
0.0
 10
-177.7165472599903
 20
-5.94705853804922
 30
0.0
 10
-177.3088272279334
 20
-19.01997118155041
 30
0.0
 10
-176.8788083531364
 20
-25.53955340463445
 30
0.0
 10
-175.5635817589115
 20
-38.54475543377396
 30
0.0
 10
-174.6784061919719
 20
-45.03037763878144
 30
0.0
 10
-172.4391977268375
 20
-57.96663980263904
 30
0.0
 10
-171.0852475464625
 20
-64.41728593320693
 30
0.0
 10
-169.4838081914588
 20
-70.84946647381598
 30
0.0
  0
MTEXT
  5
75
330
1F
100
AcDbEntity
  8
0
  6
Continuous
 62
     7
100
AcDbMText
 10
-177.512687244
 20
-228.5104894295
 30
0.0
 40
4.83362
 41
0.0
 71
     1
 72
     1
  1
SOLIDWORKS Educational Product.
  7
SLDTEXTSTYLE0
 73
     1
 44
1.0
  0
MTEXT
  5
76
330
1F
100
AcDbEntity
  8
0
  6
Continuous
 62
     7
100
AcDbMText
 10
-177.512687244
 20
-235.7609194295
 30
0.0
 40
4.83362
 41
0.0
 71
     1
 72
     1
  1
For Instructional Use Only.
  7
SLDTEXTSTYLE0
 73
     1
 44
1.0
  0
ENDSEC
  0
SECTION
  2
OBJECTS
  0
DICTIONARY
  5
C
330
0
100
AcDbDictionary
281
     1
  3
ACAD_GROUP
350
D
  3
ACAD_LAYOUT
350
1A
  3
ACAD_MLINESTYLE
350
17
  3
ACAD_PLOTSETTINGS
350
19
  3
ACAD_PLOTSTYLENAME
350
E
  3
ACAD_SCALELIST
350
47
  0
DICTIONARY
  5
D
102
{ACAD_REACTORS
330
C
102
}
330
C
100
AcDbDictionary
281
     1
  0
DICTIONARY
  5
1A
102
{ACAD_REACTORS
330
C
102
}
330
C
100
AcDbDictionary
281
     1
  3
Layout1
350
1E
  3
Layout2
350
26
  3
Model
350
22
  0
DICTIONARY
  5
17
102
{ACAD_REACTORS
330
C
102
}
330
C
100
AcDbDictionary
281
     1
  3
Standard
350
18
  0
DICTIONARY
  5
19
102
{ACAD_REACTORS
330
C
102
}
330
C
100
AcDbDictionary
281
     1
  0
ACDBDICTIONARYWDFLT
  5
E
102
{ACAD_REACTORS
330
C
102
}
330
C
100
AcDbDictionary
281
     1
  3
Normal
350
F
100
AcDbDictionaryWithDefault
340
F
  0
DICTIONARY
  5
47
102
{ACAD_REACTORS
330
C
102
}
330
C
100
AcDbDictionary
281
     1
  3
A0
350
48
  3
A1
350
49
  3
A2
350
4A
  3
A3
350
4B
  3
A4
350
4C
  3
A5
350
4D
  3
A6
350
4E
  3
A7
350
4F
  3
A8
350
50
  3
A9
350
51
  3
B0
350
52
  3
B1
350
53
  3
B2
350
54
  3
B3
350
55
  3
B4
350
56
  3
B5
350
57
  3
B6
350
58
  3
B7
350
59
  3
B8
350
5A
  3
B9
350
5B
  3
C0
350
5C
  3
C1
350
5D
  3
C2
350
5E
  3
C3
350
5F
  3
C4
350
60
  3
C5
350
61
  3
C6
350
62
  3
C7
350
63
  3
C8
350
64
  3
C9
350
65
  3
D0
350
66
  3
D1
350
67
  3
D2
350
68
  0
LAYOUT
  5
1E
102
{ACAD_REACTORS
330
1A
102
}
330
1A
100
AcDbPlotSettings
  1

  2
none_device
  4

  6

 40
0.0
 41
0.0
 42
0.0
 43
0.0
 44
0.0
 45
0.0
 46
0.0
 47
0.0
 48
0.0
 49
0.0
140
0.0
141
0.0
142
1.0
143
1.0
 70
   688
 72
     1
 73
     0
 74
     5
  7

 75
    16
147
1.0
148
0.0
149
0.0
100
AcDbLayout
  1
Layout1
 70
     1
 71
     1
 10
0.0
 20
0.0
 11
420.0
 21
297.0
 12
0.0
 22
0.0
 32
0.0
 14
1.0000000000E+20
 24
1.0000000000E+20
 34
1.0000000000E+20
 15
-1.0000000000E+20
 25
-1.0000000000E+20
 35
-1.0000000000E+20
146
0.0
 13
0.0
 23
0.0
 33
0.0
 16
1.0
 26
0.0
 36
0.0
 17
0.0
 27
1.0
 37
0.0
 76
     0
330
1B
  0
LAYOUT
  5
26
102
{ACAD_REACTORS
330
1A
102
}
330
1A
100
AcDbPlotSettings
  1

  2
none_device
  4

  6

 40
0.0
 41
0.0
 42
0.0
 43
0.0
 44
0.0
 45
0.0
 46
0.0
 47
0.0
 48
0.0
 49
0.0
140
0.0
141
0.0
142
1.0
143
1.0
 70
   688
 72
     1
 73
     0
 74
     5
  7

 75
    16
147
1.0
148
0.0
149
0.0
100
AcDbLayout
  1
Layout2
 70
     1
 71
     2
 10
0.0
 20
0.0
 11
0.0
 21
0.0
 12
0.0
 22
0.0
 32
0.0
 14
0.0
 24
0.0
 34
0.0
 15
0.0
 25
0.0
 35
0.0
146
0.0
 13
0.0
 23
0.0
 33
0.0
 16
1.0
 26
0.0
 36
0.0
 17
0.0
 27
1.0
 37
0.0
 76
     0
330
23
  0
LAYOUT
  5
22
102
{ACAD_REACTORS
330
1A
102
}
330
1A
100
AcDbPlotSettings
  1

  2
none_device
  4
ANSI_A_(11.00_x_8.50_Inches)
  6

 40
6.35
 41
19.05
 42
6.35000508
 43
19.05000254
 44
279.4
 45
215.9
 46
133.3538531603
 47
90.6527811186
 48
0.0
 49
0.0
140
0.0
141
0.0
142
0.0187985838
143
1.0
 70
  1696
 72
     0
 73
     0
 74
     0
  7

 75
     0
147
0.0179189148
148
-1300.4909072572
149
0.0
100
AcDbLayout
  1
Model
 70
     1
 71
     0
 10
0.0
 20
0.0
 11
420.0
 21
297.0
 12
0.0
 22
0.0
 32
0.0
 14
-177.512687244
 24
-227.4909230378
 34
0.0
 15
177.4965371736
 25
220.1491805549
 35
0.0
146
0.0
 13
0.0
 23
0.0
 33
0.0
 16
1.0
 26
0.0
 36
0.0
 17
0.0
 27
1.0
 37
0.0
 76
     0
330
1F
331
29
  0
MLINESTYLE
  5
18
102
{ACAD_REACTORS
330
17
102
}
330
17
100
AcDbMlineStyle
  2
Standard
 70
     0
  3

 62
   256
 51
90.0
 52
90.0
 71
     2
 49
0.5
 62
   256
  6
BYLAYER
 49
-0.5
 62
   256
  6
BYLAYER
  0
ACDBPLACEHOLDER
  5
F
102
{ACAD_REACTORS
330
E
102
}
330
E
  0
SCALE
  5
48
102
{ACAD_REACTORS
330
47
102
}
330
47
100
AcDbScale
 70
     0
300
1:1
140
1.0
141
1.0
290
     1
  0
SCALE
  5
49
102
{ACAD_REACTORS
330
47
102
}
330
47
100
AcDbScale
 70
     0
300
1:2
140
1.0
141
2.0
290
     0
  0
SCALE
  5
4A
102
{ACAD_REACTORS
330
47
102
}
330
47
100
AcDbScale
 70
     0
300
1:4
140
1.0
141
4.0
290
     0
  0
SCALE
  5
4B
102
{ACAD_REACTORS
330
47
102
}
330
47
100
AcDbScale
 70
     0
300
1:5
140
1.0
141
5.0
290
     0
  0
SCALE
  5
4C
102
{ACAD_REACTORS
330
47
102
}
330
47
100
AcDbScale
 70
     0
300
1:8
140
1.0
141
8.0
290
     0
  0
SCALE
  5
4D
102
{ACAD_REACTORS
330
47
102
}
330
47
100
AcDbScale
 70
     0
300
1:10
140
1.0
141
10.0
290
     0
  0
SCALE
  5
4E
102
{ACAD_REACTORS
330
47
102
}
330
47
100
AcDbScale
 70
     0
300
1:16
140
1.0
141
16.0
290
     0
  0
SCALE
  5
4F
102
{ACAD_REACTORS
330
47
102
}
330
47
100
AcDbScale
 70
     0
300
1:20
140
1.0
141
20.0
290
     0
  0
SCALE
  5
50
102
{ACAD_REACTORS
330
47
102
}
330
47
100
AcDbScale
 70
     0
300
1:30
140
1.0
141
30.0
290
     0
  0
SCALE
  5
51
102
{ACAD_REACTORS
330
47
102
}
330
47
100
AcDbScale
 70
     0
300
1:40
140
1.0
141
40.0
290
     0
  0
SCALE
  5
52
102
{ACAD_REACTORS
330
47
102
}
330
47
100
AcDbScale
 70
     0
300
1:50
140
1.0
141
50.0
290
     0
  0
SCALE
  5
53
102
{ACAD_REACTORS
330
47
102
}
330
47
100
AcDbScale
 70
     0
300
1:100
140
1.0
141
100.0
290
     0
  0
SCALE
  5
54
102
{ACAD_REACTORS
330
47
102
}
330
47
100
AcDbScale
 70
     0
300
2:1
140
2.0
141
1.0
290
     0
  0
SCALE
  5
55
102
{ACAD_REACTORS
330
47
102
}
330
47
100
AcDbScale
 70
     0
300
4:1
140
4.0
141
1.0
290
     0
  0
SCALE
  5
56
102
{ACAD_REACTORS
330
47
102
}
330
47
100
AcDbScale
 70
     0
300
8:1
140
8.0
141
1.0
290
     0
  0
SCALE
  5
57
102
{ACAD_REACTORS
330
47
102
}
330
47
100
AcDbScale
 70
     0
300
10:1
140
10.0
141
1.0
290
     0
  0
SCALE
  5
58
102
{ACAD_REACTORS
330
47
102
}
330
47
100
AcDbScale
 70
     0
300
100:1
140
100.0
141
1.0
290
     0
  0
SCALE
  5
59
102
{ACAD_REACTORS
330
47
102
}
330
47
100
AcDbScale
 70
     0
300
1/128" = 1'-0"
140
0.0078125
141
12.0
290
     0
  0
SCALE
  5
5A
102
{ACAD_REACTORS
330
47
102
}
330
47
100
AcDbScale
 70
     0
300
1/64" = 1'-0"
140
0.015625
141
12.0
290
     0
  0
SCALE
  5
5B
102
{ACAD_REACTORS
330
47
102
}
330
47
100
AcDbScale
 70
     0
300
1/32" = 1'-0"
140
0.03125
141
12.0
290
     0
  0
SCALE
  5
5C
102
{ACAD_REACTORS
330
47
102
}
330
47
100
AcDbScale
 70
     0
300
1/16" = 1'-0"
140
0.0625
141
12.0
290
     0
  0
SCALE
  5
5D
102
{ACAD_REACTORS
330
47
102
}
330
47
100
AcDbScale
 70
     0
300
3/32" = 1'-0"
140
0.09375
141
12.0
290
     0
  0
SCALE
  5
5E
102
{ACAD_REACTORS
330
47
102
}
330
47
100
AcDbScale
 70
     0
300
1/8" = 1'-0"
140
0.125
141
12.0
290
     0
  0
SCALE
  5
5F
102
{ACAD_REACTORS
330
47
102
}
330
47
100
AcDbScale
 70
     0
300
3/16" = 1'-0"
140
0.1875
141
12.0
290
     0
  0
SCALE
  5
60
102
{ACAD_REACTORS
330
47
102
}
330
47
100
AcDbScale
 70
     0
300
1/4" = 1'-0"
140
0.25
141
12.0
290
     0
  0
SCALE
  5
61
102
{ACAD_REACTORS
330
47
102
}
330
47
100
AcDbScale
 70
     0
300
3/8" = 1'-0"
140
0.375
141
12.0
290
     0
  0
SCALE
  5
62
102
{ACAD_REACTORS
330
47
102
}
330
47
100
AcDbScale
 70
     0
300
1/2" = 1'-0"
140
0.5
141
12.0
290
     0
  0
SCALE
  5
63
102
{ACAD_REACTORS
330
47
102
}
330
47
100
AcDbScale
 70
     0
300
3/4" = 1'-0"
140
0.75
141
12.0
290
     0
  0
SCALE
  5
64
102
{ACAD_REACTORS
330
47
102
}
330
47
100
AcDbScale
 70
     0
300
1" = 1'-0"
140
1.0
141
12.0
290
     0
  0
SCALE
  5
65
102
{ACAD_REACTORS
330
47
102
}
330
47
100
AcDbScale
 70
     0
300
1-1/2" = 1'-0"
140
1.5
141
12.0
290
     0
  0
SCALE
  5
66
102
{ACAD_REACTORS
330
47
102
}
330
47
100
AcDbScale
 70
     0
300
3" = 1'-0"
140
3.0
141
12.0
290
     0
  0
SCALE
  5
67
102
{ACAD_REACTORS
330
47
102
}
330
47
100
AcDbScale
 70
     0
300
6" = 1'-0"
140
6.0
141
12.0
290
     0
  0
SCALE
  5
68
102
{ACAD_REACTORS
330
47
102
}
330
47
100
AcDbScale
 70
     0
300
1'-0" = 1'-0"
140
12.0
141
12.0
290
     0
  0
ENDSEC
  0
EOF
